<svg width="22" height="14" viewBox="0 0 22 14" fill="none" xmlns="http://www.w3.org/2000/svg">
<path fill-rule="evenodd" clip-rule="evenodd" d="M7.94336 12.4851H13.8315V1.49421H7.94336V12.4851Z" fill="#FF5F00"/>
<path fill-rule="evenodd" clip-rule="evenodd" d="M8.31723 6.98952C8.31723 4.75973 9.32232 2.77382 10.8874 1.49409C9.74272 0.55802 8.29854 -0.000396729 6.72874 -0.000396729C3.01248 -0.000396729 0 3.12914 0 6.98952C0 10.8499 3.01248 13.9794 6.72874 13.9794C8.29854 13.9794 9.74272 13.421 10.8874 12.4849C9.32232 11.205 8.31723 9.2193 8.31723 6.98952Z" fill="#EB001B"/>
<path fill-rule="evenodd" clip-rule="evenodd" d="M21.5646 11.3209V11.0497H21.4963L21.418 11.2363L21.3395 11.0497H21.2713V11.3209H21.3193V11.1163L21.393 11.2928H21.4429L21.5165 11.1159V11.3209H21.5646ZM21.1326 11.3209V11.0959H21.2201V11.0501H20.9976V11.0959H21.0849V11.3209H21.1326ZM21.7747 6.98952C21.7747 10.8499 18.762 13.9794 15.0459 13.9794C13.4761 13.9794 12.0317 13.421 10.8872 12.485C12.4523 11.2052 13.4574 9.2193 13.4574 6.98952C13.4574 4.75993 12.4523 2.77402 10.8872 1.49409C12.0317 0.55802 13.4761 -0.000396729 15.0459 -0.000396729C18.762 -0.000396729 21.7747 3.12914 21.7747 6.98952Z" fill="#F79E1B"/>
</svg>
