<svg width="24" height="24" viewBox="0 0 24 24" fill="none" xmlns="http://www.w3.org/2000/svg">
<path fill-rule="evenodd" clip-rule="evenodd" d="M0 11.9998C0 5.3724 5.37258 -0.000183105 12 -0.000183105C18.6274 -0.000183105 24 5.3724 24 11.9998C24 18.6272 18.6274 23.9998 12 23.9998C5.37258 23.9998 0 18.6272 0 11.9998Z" fill="white"/>
<path fill-rule="evenodd" clip-rule="evenodd" d="M12 -0.000183105C5.37258 -0.000183105 0 5.3724 0 11.9998C0 18.6272 5.37258 23.9998 12 23.9998C18.6274 23.9998 24 18.6272 24 11.9998C24 5.3724 18.6274 -0.000183105 12 -0.000183105ZM12.1659 10.1685L12.1407 9.75327C12.0652 8.67707 12.7283 7.69409 13.7775 7.31276C14.1636 7.17717 14.8183 7.16022 15.2464 7.27886C15.4143 7.3297 15.7333 7.49918 15.9599 7.65172L16.3712 7.93136L16.8244 7.7873C17.0763 7.71103 17.412 7.58392 17.5631 7.49918C17.7058 7.42292 17.8317 7.38055 17.8317 7.40597C17.8317 7.55003 17.5211 8.04152 17.2609 8.31269C16.9084 8.69402 17.0091 8.72792 17.7226 8.4737C18.1507 8.32964 18.159 8.32964 18.0751 8.49064C18.0247 8.57539 17.7645 8.87198 17.4875 9.14314C17.0175 9.60922 16.9923 9.66006 16.9923 10.0499C16.9923 10.6515 16.7069 11.9057 16.4215 12.5921C15.8927 13.8801 14.7596 15.2105 13.6264 15.88C12.0316 16.8206 9.90799 17.0579 8.12012 16.5071C7.52416 16.3206 6.50013 15.8461 6.50013 15.7614C6.50013 15.7359 6.81069 15.702 7.18841 15.6936C7.97743 15.6766 8.76644 15.4563 9.43794 15.0665L9.8912 14.7953L9.37079 14.6174C8.63214 14.3631 7.96903 13.7784 7.80116 13.2276C7.75079 13.0497 7.76758 13.0412 8.23763 13.0412L8.72447 13.0327L8.31318 12.8378C7.82634 12.5921 7.38147 12.1768 7.16323 11.7531C7.00375 11.4481 6.8023 10.6769 6.86106 10.6176C6.87784 10.5922 7.05411 10.643 7.25556 10.7108C7.83473 10.9227 7.91028 10.8718 7.57453 10.5159C6.94499 9.87191 6.75194 8.91435 7.05411 8.00763L7.19681 7.60087L7.75079 8.15168C8.88395 9.26178 10.2186 9.92275 11.7462 10.1177L12.1659 10.1685Z" fill="#DCDFEA"/>
</svg>
