<svg width="24" height="24" viewBox="0 0 24 24" fill="none" xmlns="http://www.w3.org/2000/svg">
<path fill-rule="evenodd" clip-rule="evenodd" d="M0 11.9998C0 5.3724 5.37258 -0.000183105 12 -0.000183105C18.6274 -0.000183105 24 5.3724 24 11.9998C24 18.6272 18.6274 23.9998 12 23.9998C5.37258 23.9998 0 18.6272 0 11.9998Z" fill="white"/>
<path fill-rule="evenodd" clip-rule="evenodd" d="M12 -0.000183105C5.37258 -0.000183105 0 5.3724 0 11.9998C0 18.6272 5.37258 23.9998 12 23.9998C18.6274 23.9998 24 18.6272 24 11.9998C24 5.3724 18.6274 -0.000183105 12 -0.000183105ZM7.66277 16.5936H9.70359V10.0215H7.66277V16.5936ZM7.5 7.93177C7.5 8.58427 8.02945 9.12497 8.68195 9.12497C9.33445 9.12497 9.86391 8.58427 9.86391 7.93177C9.86391 7.6183 9.73938 7.31766 9.51772 7.096C9.29606 6.87434 8.99543 6.74982 8.68195 6.74982C8.36848 6.74982 8.06785 6.87434 7.84619 7.096C7.62453 7.31766 7.5 7.6183 7.5 7.93177ZM15.3054 16.5936H17.3416H17.3434V12.9834C17.3434 11.2168 16.9637 9.85658 14.8983 9.85658C13.9055 9.85658 13.24 10.4015 12.9675 10.9179H12.939V10.0215H10.9819V16.5936H13.0206V13.3395C13.0206 12.4824 13.1834 11.6541 14.2444 11.6541C15.2899 11.6541 15.3054 12.6318 15.3054 13.3943V16.5936Z" fill="#DCDFEA"/>
</svg>
