<svg width="107" height="28" viewBox="0 0 107 28" fill="none" xmlns="http://www.w3.org/2000/svg">
<path d="M27.6438 25.5184H24.0033L20.9052 22.4714L19.0739 20.6698C19.7583 20.1559 20.375 19.5588 20.9077 18.8956C22.2914 17.1726 23.1175 14.9999 23.1175 12.6405C23.1175 7.07055 18.5088 2.53796 12.8452 2.53796C7.18172 2.53796 2.573 7.07055 2.573 12.6405C2.573 17.7821 6.49977 22.0406 11.5588 22.6645V20.1071C7.92337 19.5026 5.14599 16.385 5.14599 12.6405C5.14599 8.46516 8.59976 5.06845 12.8452 5.06845C17.0907 5.06845 20.5445 8.46516 20.5445 12.6405C20.5445 14.3023 19.9971 15.8417 19.0713 17.0895C18.5634 17.7746 17.9417 18.3747 17.2324 18.8593L15.3687 17.0258C16.125 16.6024 16.7644 15.9954 17.2172 15.2665C17.6953 14.5003 17.969 13.5998 17.969 12.638C17.969 9.85777 15.6697 7.59645 12.8427 7.59645C10.0158 7.59645 7.71646 9.85777 7.71646 12.638C7.71646 14.98 9.34899 16.9552 11.5562 17.5179V14.8038C10.7999 14.368 10.292 13.5605 10.292 12.6355C10.292 11.2504 11.4343 10.1245 12.8452 10.1245C14.2562 10.1245 15.396 11.2479 15.396 12.6355C15.396 13.5605 14.8881 14.368 14.1317 14.8038V27.9996H11.5588V25.2074C5.07618 24.571 0 19.1747 0 12.6355C0 5.66798 5.76319 0 12.8478 0C19.9324 0 25.693 5.66798 25.693 12.6355C25.693 15.6944 24.5831 18.5015 22.7366 20.6897L27.6438 25.5184Z" fill="#0C66FF"/>
<path d="M41.7957 20.7801L38.6478 16.1571H36.1096V20.7801H32.8796V6.33606H39.5934C43.0548 6.33606 45.1326 8.13239 45.1326 11.1034V11.145C45.1326 13.4773 43.8536 14.9408 41.9848 15.6236L45.5731 20.7826H41.7957V20.7801ZM41.8579 11.2674C41.8579 9.90425 40.8924 9.20432 39.3197 9.20432H36.1096V13.3525H39.3819C40.9546 13.3525 41.8579 12.5278 41.8579 11.309V11.2674Z" fill="black"/>
<path d="M58.9782 20.7801L57.6344 17.5399H51.4233L50.0796 20.7801H46.7849L53.0806 6.23328H56.0593L62.355 20.7801H58.9782ZM54.5289 10.0511L52.578 14.7353H56.4798L54.5289 10.0511Z" fill="black"/>
<path d="M69.6784 15.024V20.7826H66.4484V15.0877L60.8047 6.3385H64.5821L68.0858 12.1362L71.6517 6.3385H75.3247L69.6784 15.024Z" fill="black"/>
<path d="M83.0638 20.7801H77.3354V6.33606H83.0638C87.6798 6.33606 90.87 9.45149 90.87 13.5165V13.5581C90.8675 17.6231 87.6798 20.7801 83.0638 20.7801ZM87.4907 13.5581C87.4907 10.9982 85.7065 9.20432 83.0638 9.20432H80.5679V17.9119H83.0638C85.7065 17.9119 87.4907 16.1571 87.4907 13.5997V13.5581Z" fill="black"/>
<path d="M103.623 20.7801L102.279 17.5399H96.0681L94.7244 20.7801H91.4297L97.7254 6.23328H100.704L107 20.7801H103.623ZM99.1762 10.0511L97.2252 14.7353H101.127L99.1762 10.0511Z" fill="black"/>
</svg>
