<svg width="398" height="301" viewBox="0 0 398 301" fill="none" xmlns="http://www.w3.org/2000/svg">
<path d="M103.818 224.872H103.739C102.744 224.792 101.749 224.672 100.754 224.522C100.623 224.503 100.498 224.458 100.384 224.391C100.271 224.323 100.172 224.233 100.093 224.127C100.014 224.021 99.9562 223.9 99.9237 223.772C99.8912 223.644 99.8842 223.51 99.9032 223.379C99.9221 223.248 99.9666 223.122 100.034 223.008C100.102 222.894 100.191 222.795 100.297 222.715C100.402 222.636 100.523 222.578 100.651 222.546C100.779 222.513 100.912 222.506 101.042 222.525C102.004 222.665 102.969 222.775 103.938 222.855C104.202 222.865 104.451 222.981 104.63 223.175C104.809 223.37 104.904 223.628 104.893 223.893C104.883 224.158 104.768 224.408 104.574 224.587C104.379 224.767 104.122 224.862 103.858 224.852L103.818 224.872ZM113.769 224.492C113.638 224.502 113.507 224.486 113.382 224.445C113.258 224.404 113.142 224.338 113.043 224.253C112.944 224.167 112.862 224.062 112.803 223.945C112.744 223.828 112.709 223.7 112.699 223.569C112.689 223.437 112.705 223.306 112.746 223.181C112.787 223.056 112.852 222.94 112.938 222.841C113.023 222.741 113.127 222.659 113.244 222.6C113.361 222.541 113.489 222.505 113.619 222.495C114.565 222.346 115.53 222.156 116.475 221.926C116.602 221.897 116.734 221.892 116.863 221.914C116.992 221.936 117.116 221.983 117.227 222.052C117.337 222.122 117.434 222.213 117.51 222.319C117.585 222.426 117.64 222.547 117.669 222.675C117.729 222.932 117.685 223.202 117.547 223.426C117.409 223.651 117.188 223.811 116.933 223.873C115.938 224.113 114.943 224.312 113.948 224.472L113.769 224.492ZM91.2815 222.056C91.1661 222.056 91.0517 222.036 90.9432 221.996C89.9482 221.647 89.0527 221.267 88.1174 220.868C87.9972 220.816 87.8883 220.741 87.797 220.647C87.7057 220.553 87.6337 220.442 87.5852 220.32C87.5367 220.198 87.5126 220.068 87.5143 219.936C87.516 219.805 87.5434 219.676 87.595 219.555C87.6466 219.434 87.7214 219.325 87.8151 219.233C87.9088 219.142 88.0196 219.07 88.141 219.021C88.2626 218.972 88.3924 218.948 88.5232 218.95C88.654 218.951 88.7832 218.979 88.9034 219.031C89.7989 219.42 90.7243 219.78 91.6297 220.119C91.8504 220.199 92.0357 220.355 92.1528 220.56C92.2699 220.764 92.3113 221.003 92.2696 221.235C92.2279 221.467 92.1059 221.676 91.925 221.827C91.7442 221.977 91.5163 222.058 91.2815 222.056ZM126.037 220.518C125.85 220.519 125.668 220.467 125.509 220.368C125.351 220.269 125.223 220.127 125.141 219.959C125.024 219.722 125.005 219.448 125.089 219.197C125.173 218.947 125.353 218.739 125.589 218.621C126.455 218.202 127.32 217.733 128.166 217.244C128.28 217.178 128.405 217.135 128.535 217.118C128.665 217.1 128.798 217.109 128.924 217.144C129.051 217.178 129.17 217.237 129.274 217.318C129.377 217.398 129.464 217.499 129.529 217.613C129.659 217.842 129.693 218.114 129.624 218.368C129.555 218.622 129.389 218.839 129.161 218.971C128.276 219.48 127.37 219.969 126.475 220.419C126.326 220.491 126.162 220.525 125.997 220.518H126.037ZM79.7295 216.265C79.5399 216.268 79.3535 216.216 79.1922 216.115C78.3465 215.576 77.5007 215.007 76.6749 214.428C76.4588 214.277 76.3113 214.046 76.2646 213.786C76.218 213.526 76.2761 213.258 76.4261 213.04C76.5768 212.823 76.807 212.675 77.0663 212.629C77.3255 212.582 77.5927 212.64 77.8092 212.791C78.6151 213.36 79.4311 213.899 80.2569 214.428C80.4365 214.544 80.5739 214.716 80.6489 214.917C80.7239 215.117 80.7324 215.337 80.6733 215.543C80.6141 215.749 80.4904 215.931 80.3204 216.061C80.1504 216.191 79.9433 216.262 79.7295 216.265ZM136.743 213.4C136.599 213.398 136.456 213.366 136.325 213.304C136.195 213.242 136.079 213.152 135.987 213.04C135.902 212.941 135.837 212.825 135.797 212.701C135.756 212.576 135.741 212.444 135.751 212.314C135.761 212.183 135.797 212.055 135.856 211.939C135.915 211.822 135.997 211.718 136.096 211.633L136.315 211.403C136.972 210.834 137.639 210.245 138.305 209.626C138.499 209.446 138.756 209.35 139.021 209.361C139.285 209.371 139.534 209.486 139.713 209.681C139.893 209.875 139.988 210.133 139.977 210.398C139.967 210.663 139.852 210.913 139.658 211.093C138.962 211.732 138.285 212.341 137.609 212.92L137.38 213.11C137.209 213.281 136.983 213.384 136.743 213.4ZM69.4412 208.408C69.1947 208.407 68.9571 208.314 68.7746 208.148C68.0283 207.459 67.292 206.76 66.5856 206.061C66.3969 205.876 66.2893 205.623 66.2865 205.358C66.2837 205.093 66.3859 204.838 66.5707 204.649C66.7554 204.459 67.0075 204.351 67.2715 204.349C67.5356 204.346 67.7899 204.448 67.9786 204.634C68.6751 205.323 69.3915 206.001 70.1178 206.63C70.2151 206.719 70.2939 206.827 70.3496 206.946C70.4053 207.066 70.4368 207.195 70.4424 207.327C70.4479 207.459 70.4274 207.59 70.3819 207.714C70.3365 207.838 70.267 207.951 70.1775 208.048C70.0873 208.157 69.9749 208.245 69.8479 208.307C69.721 208.369 69.5824 208.404 69.4412 208.408ZM145.967 204.304C145.72 204.304 145.483 204.211 145.3 204.045C145.105 203.867 144.988 203.619 144.975 203.355C144.962 203.091 145.054 202.833 145.23 202.637C145.887 201.908 146.554 201.169 147.22 200.41C147.305 200.305 147.409 200.219 147.528 200.155C147.646 200.092 147.776 200.053 147.91 200.042C148.044 200.03 148.179 200.046 148.306 200.088C148.434 200.13 148.552 200.198 148.653 200.287C148.753 200.376 148.835 200.485 148.893 200.606C148.951 200.728 148.984 200.86 148.989 200.995C148.995 201.129 148.973 201.264 148.926 201.39C148.878 201.516 148.806 201.631 148.713 201.728C148.036 202.497 147.37 203.246 146.723 203.975C146.623 204.072 146.505 204.147 146.374 204.195C146.244 204.243 146.105 204.263 145.967 204.254V204.304ZM60.6952 198.853C60.5441 198.854 60.3947 198.82 60.2585 198.754C60.1223 198.688 60.0028 198.592 59.9091 198.473C59.2723 197.665 58.6654 196.856 58.0783 196.047C58.0015 195.941 57.9464 195.82 57.9163 195.691C57.8862 195.563 57.8817 195.431 57.903 195.301C57.9242 195.171 57.9709 195.046 58.0403 194.935C58.1096 194.823 58.2004 194.726 58.3072 194.649C58.5213 194.497 58.7868 194.435 59.0459 194.478C59.3049 194.521 59.5366 194.665 59.6902 194.879C60.2673 195.668 60.8544 196.457 61.4713 197.235C61.5869 197.382 61.6591 197.559 61.6796 197.745C61.7001 197.931 61.668 198.119 61.5871 198.288C61.5062 198.456 61.3797 198.599 61.222 198.699C61.0643 198.799 60.8817 198.852 60.6952 198.853ZM154.404 194.43C154.172 194.43 153.947 194.349 153.768 194.2C153.565 194.033 153.438 193.792 153.411 193.53C153.385 193.268 153.463 193.007 153.628 192.802C154.255 192.034 154.882 191.265 155.509 190.476C155.591 190.374 155.692 190.288 155.807 190.225C155.922 190.162 156.049 190.122 156.179 190.109C156.31 190.095 156.441 190.107 156.567 190.144C156.693 190.181 156.81 190.243 156.912 190.326C157.115 190.493 157.245 190.733 157.273 190.994C157.301 191.256 157.225 191.518 157.061 191.724L155.17 194.06C155.078 194.175 154.961 194.267 154.829 194.331C154.696 194.395 154.551 194.429 154.404 194.43ZM53.6108 188.02C53.4256 188.015 53.2455 187.958 53.0908 187.856C52.9361 187.753 52.8129 187.61 52.7352 187.441C52.2576 186.512 51.8098 185.584 51.4118 184.685C51.3588 184.565 51.3299 184.436 51.3267 184.305C51.3236 184.174 51.3462 184.043 51.3933 183.921C51.4404 183.798 51.5112 183.687 51.6014 183.592C51.6917 183.497 51.7997 183.42 51.9193 183.367C52.0388 183.314 52.1677 183.285 52.2984 183.282C52.4291 183.279 52.5592 183.302 52.6812 183.349C52.8032 183.396 52.9147 183.467 53.0093 183.558C53.1039 183.648 53.1798 183.757 53.2327 183.877C53.6207 184.735 54.0486 185.634 54.5063 186.522C54.5663 186.64 54.6026 186.768 54.613 186.899C54.6234 187.03 54.6079 187.163 54.5672 187.288C54.5265 187.413 54.4615 187.529 54.3759 187.629C54.2903 187.729 54.1858 187.811 54.0685 187.87C53.9269 187.943 53.7699 187.981 53.6108 187.98V188.02ZM162.464 184.256C162.278 184.256 162.096 184.203 161.939 184.104C161.781 184.006 161.655 183.865 161.573 183.697C161.491 183.53 161.458 183.343 161.476 183.158C161.495 182.973 161.565 182.796 161.678 182.649L163.509 180.282C163.585 180.169 163.683 180.074 163.798 180C163.912 179.927 164.041 179.878 164.175 179.857C164.309 179.835 164.446 179.841 164.578 179.875C164.709 179.909 164.833 179.969 164.94 180.052C165.048 180.136 165.137 180.24 165.203 180.359C165.269 180.479 165.309 180.61 165.322 180.746C165.336 180.882 165.321 181.018 165.279 181.148C165.238 181.278 165.17 181.398 165.081 181.5L163.25 183.867C163.153 183.98 163.032 184.07 162.896 184.131C162.76 184.191 162.613 184.22 162.464 184.216V184.256ZM49.5014 175.769C49.26 175.772 49.0259 175.686 48.8429 175.528C48.6598 175.37 48.5402 175.151 48.5064 174.911C48.3671 173.912 48.2776 172.844 48.2378 171.826C48.2378 171.561 48.3426 171.307 48.5292 171.12C48.7158 170.932 48.9689 170.827 49.2328 170.827C49.4967 170.827 49.7498 170.932 49.9364 171.12C50.123 171.307 50.2278 171.561 50.2278 171.826C50.2608 172.788 50.3439 173.748 50.4765 174.701C50.4947 174.832 50.487 174.965 50.4538 175.092C50.4205 175.22 50.3625 175.339 50.2829 175.444C50.2034 175.549 50.1039 175.637 49.9903 175.703C49.8766 175.769 49.7511 175.812 49.6208 175.829L49.5014 175.769ZM170.374 173.962C170.188 173.964 170.004 173.913 169.846 173.815C169.687 173.717 169.558 173.576 169.475 173.408C169.392 173.241 169.358 173.053 169.376 172.867C169.394 172.681 169.464 172.503 169.578 172.355L171.399 169.979C171.563 169.781 171.797 169.655 172.051 169.626C172.306 169.597 172.562 169.668 172.766 169.823C172.97 169.979 173.106 170.208 173.146 170.462C173.186 170.716 173.127 170.975 172.981 171.187L171.14 173.533C171.05 173.651 170.934 173.748 170.801 173.815C170.669 173.882 170.523 173.919 170.374 173.922V173.962ZM334.32 168.471C334.228 168.481 334.134 168.481 334.042 168.471C333.916 168.434 333.799 168.373 333.697 168.291C333.595 168.209 333.511 168.108 333.448 167.993C333.385 167.878 333.345 167.751 333.331 167.621C333.317 167.491 333.328 167.359 333.365 167.233C333.614 166.354 333.882 165.396 334.151 164.368C334.184 164.24 334.241 164.121 334.319 164.016C334.398 163.91 334.497 163.822 334.609 163.755C334.722 163.688 334.847 163.645 334.977 163.626C335.106 163.608 335.238 163.616 335.365 163.649C335.492 163.682 335.611 163.741 335.716 163.821C335.82 163.901 335.908 164.001 335.973 164.115C336.039 164.229 336.081 164.355 336.098 164.486C336.115 164.617 336.106 164.75 336.071 164.877C335.803 165.875 335.534 166.874 335.275 167.782C335.21 167.984 335.082 168.16 334.91 168.283C334.738 168.407 334.532 168.473 334.32 168.471ZM178.235 163.659C178.015 163.658 177.801 163.584 177.628 163.449C177.42 163.287 177.284 163.049 177.25 162.787C177.217 162.525 177.288 162.261 177.449 162.051L179.269 159.675C179.432 159.464 179.671 159.327 179.934 159.294C180.197 159.26 180.463 159.332 180.672 159.495C180.882 159.658 181.019 159.898 181.052 160.162C181.086 160.426 181.014 160.693 180.851 160.903L179.021 163.269C178.925 163.378 178.807 163.465 178.675 163.524C178.543 163.582 178.399 163.611 178.254 163.609L178.235 163.659ZM50.5362 162.95C50.4406 162.964 50.3434 162.964 50.2477 162.95C49.9958 162.872 49.7851 162.696 49.6619 162.462C49.5388 162.228 49.5133 161.955 49.591 161.702C49.8795 160.703 50.2278 159.755 50.586 158.796C50.6292 158.667 50.6983 158.548 50.7891 158.447C50.8798 158.346 50.9903 158.264 51.1137 158.207C51.2371 158.15 51.3708 158.119 51.5065 158.116C51.6423 158.113 51.7772 158.138 51.9031 158.189C52.0289 158.24 52.143 158.317 52.2383 158.414C52.3336 158.511 52.408 158.626 52.4571 158.753C52.5061 158.881 52.5287 159.016 52.5235 159.152C52.5183 159.289 52.4854 159.422 52.4267 159.545C52.0685 160.454 51.7402 161.372 51.4317 162.281C51.3598 162.457 51.2392 162.609 51.084 162.719C50.9289 162.828 50.7457 162.891 50.5561 162.9L50.5362 162.95ZM337.305 155.781C337.243 155.792 337.179 155.792 337.116 155.781C336.858 155.733 336.629 155.584 336.48 155.367C336.331 155.15 336.274 154.882 336.32 154.623C336.499 153.625 336.668 152.686 336.838 151.688C336.859 151.557 336.906 151.431 336.976 151.318C337.046 151.205 337.137 151.107 337.245 151.03C337.353 150.953 337.474 150.897 337.603 150.867C337.732 150.837 337.866 150.832 337.997 150.854C338.127 150.876 338.253 150.923 338.365 150.993C338.477 151.063 338.575 151.155 338.652 151.263C338.729 151.371 338.785 151.493 338.815 151.623C338.845 151.752 338.849 151.886 338.828 152.017C338.658 153.016 338.489 154.014 338.31 155.012C338.257 155.238 338.128 155.437 337.945 155.577C337.762 155.718 337.536 155.79 337.305 155.781ZM186.195 153.355C186.007 153.356 185.823 153.304 185.664 153.205C185.505 153.106 185.377 152.963 185.295 152.794C185.213 152.625 185.18 152.436 185.2 152.249C185.22 152.063 185.292 151.885 185.409 151.738L187.269 149.381C187.349 149.274 187.45 149.185 187.565 149.118C187.68 149.05 187.808 149.007 187.94 148.99C188.072 148.974 188.207 148.984 188.335 149.02C188.463 149.056 188.583 149.118 188.687 149.202C188.791 149.286 188.877 149.389 188.94 149.507C189.004 149.625 189.043 149.754 189.055 149.887C189.068 150.02 189.054 150.155 189.013 150.282C188.973 150.41 188.908 150.528 188.821 150.629L186.971 152.976C186.88 153.091 186.765 153.184 186.635 153.25C186.504 153.315 186.361 153.351 186.214 153.355H186.195ZM56.4565 151.418C56.2446 151.416 56.0389 151.346 55.8694 151.218C55.6596 151.061 55.5201 150.827 55.4809 150.568C55.4418 150.308 55.5063 150.043 55.6605 149.831C56.2575 149.022 56.8943 148.213 57.551 147.424C57.7212 147.222 57.9646 147.095 58.2277 147.073C58.4908 147.051 58.7521 147.134 58.9539 147.305C59.1558 147.475 59.2818 147.72 59.3042 147.984C59.3266 148.248 59.2436 148.51 59.0733 148.712C58.4365 149.461 57.8296 150.24 57.2624 151.009C57.1698 151.136 57.0485 151.239 56.9084 151.31C56.7684 151.382 56.6135 151.419 56.4565 151.418ZM194.314 143.221C194.085 143.219 193.863 143.138 193.687 142.991C193.485 142.824 193.357 142.583 193.331 142.321C193.305 142.06 193.383 141.798 193.548 141.594L195.448 139.277C195.529 139.174 195.63 139.089 195.744 139.025C195.858 138.961 195.983 138.92 196.113 138.904C196.243 138.889 196.374 138.9 196.5 138.935C196.626 138.971 196.743 139.031 196.846 139.113C196.949 139.194 197.034 139.295 197.098 139.409C197.162 139.524 197.202 139.65 197.218 139.78C197.233 139.91 197.222 140.042 197.187 140.168C197.151 140.295 197.091 140.412 197.01 140.515L195.12 142.822C195.026 142.947 194.904 143.049 194.764 143.118C194.624 143.187 194.47 143.223 194.314 143.221ZM339.056 142.922H338.977C338.714 142.901 338.471 142.777 338.299 142.577C338.128 142.377 338.042 142.117 338.061 141.853C338.141 140.855 338.201 139.856 338.26 138.858C338.26 138.723 338.288 138.589 338.341 138.464C338.394 138.34 338.471 138.227 338.569 138.134C338.667 138.04 338.783 137.968 338.909 137.921C339.036 137.874 339.17 137.853 339.305 137.86C339.567 137.875 339.813 137.994 339.988 138.19C340.163 138.387 340.254 138.645 340.24 138.908C340.191 139.906 340.121 140.905 340.041 141.903C340.044 142.035 340.021 142.166 339.972 142.289C339.924 142.412 339.852 142.524 339.761 142.619C339.669 142.713 339.56 142.789 339.439 142.841C339.318 142.893 339.188 142.92 339.056 142.922ZM65.4314 142.073C65.225 142.074 65.0234 142.01 64.8546 141.891C64.6858 141.772 64.5581 141.603 64.4892 141.408C64.4203 141.212 64.4137 141 64.4702 140.801C64.5267 140.602 64.6435 140.425 64.8045 140.296C66.2871 139.098 67.2423 138.459 67.2821 138.429C67.5024 138.288 67.769 138.24 68.0242 138.295C68.2794 138.35 68.5029 138.504 68.6465 138.722C68.7901 138.941 68.8423 139.208 68.7918 139.465C68.7413 139.722 68.5922 139.948 68.3766 140.096C68.3766 140.096 67.4512 140.715 66.0582 141.843C65.8766 141.994 65.6474 142.076 65.4115 142.073H65.4314ZM202.672 133.277C202.482 133.275 202.298 133.219 202.139 133.115C201.98 133.012 201.854 132.865 201.776 132.692C201.697 132.519 201.67 132.327 201.696 132.139C201.723 131.951 201.802 131.774 201.926 131.63C202.572 130.871 203.229 130.112 203.916 129.363C204 129.258 204.104 129.171 204.223 129.108C204.341 129.045 204.472 129.006 204.605 128.995C204.739 128.983 204.874 128.999 205.002 129.041C205.129 129.083 205.247 129.151 205.348 129.24C205.449 129.329 205.53 129.438 205.588 129.559C205.646 129.681 205.679 129.813 205.685 129.948C205.69 130.082 205.669 130.217 205.621 130.343C205.574 130.469 205.501 130.584 205.408 130.681C204.751 131.43 204.095 132.179 203.418 132.937C203.323 133.047 203.205 133.133 203.072 133.192C202.94 133.251 202.796 133.28 202.652 133.277H202.672ZM339.295 129.942C339.041 129.943 338.797 129.846 338.612 129.671C338.427 129.497 338.315 129.258 338.3 129.004C338.241 128.005 338.171 127.007 338.081 126.008C338.058 125.744 338.14 125.48 338.309 125.276C338.479 125.072 338.723 124.944 338.987 124.92C339.251 124.896 339.513 124.979 339.717 125.149C339.92 125.319 340.048 125.564 340.071 125.829C340.161 126.827 340.24 127.826 340.29 128.824C340.291 129.079 340.194 129.324 340.02 129.51C339.846 129.695 339.608 129.807 339.355 129.822L339.295 129.942ZM211.338 123.602C211.087 123.601 210.845 123.505 210.662 123.333C210.47 123.152 210.356 122.903 210.347 122.639C210.338 122.375 210.433 122.119 210.612 121.925C211.288 121.186 211.975 120.457 212.662 119.738C212.847 119.568 213.09 119.474 213.341 119.476C213.593 119.478 213.834 119.575 214.017 119.749C214.2 119.922 214.311 120.158 214.327 120.41C214.343 120.662 214.263 120.911 214.104 121.106L212.114 123.283C212.012 123.395 211.885 123.482 211.743 123.537C211.602 123.593 211.45 123.615 211.298 123.602H211.338ZM337.494 117.103C337.267 117.109 337.044 117.038 336.863 116.899C336.682 116.761 336.554 116.565 336.499 116.344C336.27 115.345 336.022 114.417 335.743 113.498C335.706 113.372 335.695 113.241 335.709 113.11C335.723 112.98 335.763 112.854 335.826 112.739C335.889 112.624 335.973 112.522 336.075 112.44C336.177 112.358 336.294 112.297 336.42 112.26C336.672 112.186 336.943 112.214 337.174 112.34C337.405 112.465 337.577 112.677 337.653 112.929C337.932 113.928 338.201 114.876 338.44 115.875C338.471 116.002 338.476 116.135 338.456 116.265C338.436 116.395 338.39 116.52 338.322 116.632C338.253 116.744 338.163 116.842 338.057 116.919C337.951 116.997 337.831 117.052 337.703 117.083L337.494 117.103ZM220.363 114.297C220.166 114.296 219.974 114.237 219.811 114.126C219.648 114.016 219.521 113.86 219.446 113.677C219.372 113.494 219.353 113.293 219.392 113.1C219.431 112.906 219.527 112.729 219.666 112.59L221.826 110.493C221.918 110.399 222.028 110.325 222.149 110.275C222.271 110.224 222.401 110.198 222.532 110.198C222.663 110.198 222.793 110.224 222.915 110.275C223.036 110.325 223.146 110.399 223.238 110.493C223.424 110.68 223.528 110.933 223.528 111.197C223.528 111.461 223.424 111.714 223.238 111.901C222.522 112.58 221.816 113.279 221.099 113.978C221.001 114.084 220.88 114.168 220.746 114.223C220.612 114.279 220.468 114.304 220.323 114.297H220.363ZM229.885 105.491C229.683 105.491 229.486 105.429 229.32 105.313C229.154 105.198 229.027 105.035 228.955 104.845C228.884 104.655 228.872 104.448 228.921 104.252C228.97 104.055 229.077 103.878 229.228 103.744L231.517 101.747C231.72 101.576 231.983 101.493 232.247 101.517C232.511 101.54 232.755 101.668 232.925 101.872C233.095 102.076 233.177 102.339 233.154 102.604C233.131 102.869 233.004 103.114 232.8 103.285C232.044 103.914 231.288 104.562 230.532 105.211C230.347 105.39 230.101 105.49 229.845 105.491H229.885ZM333.027 104.962C332.846 104.96 332.668 104.909 332.514 104.814C332.36 104.719 332.234 104.584 332.151 104.423C331.693 103.554 331.216 102.695 330.708 101.867C330.573 101.64 330.533 101.369 330.596 101.113C330.659 100.856 330.821 100.636 331.047 100.499C331.272 100.363 331.543 100.323 331.798 100.386C332.054 100.45 332.274 100.612 332.41 100.838C332.937 101.697 333.405 102.596 333.912 103.494C333.993 103.647 334.033 103.818 334.029 103.991C334.024 104.164 333.974 104.333 333.885 104.481C333.796 104.629 333.67 104.751 333.519 104.835C333.369 104.919 333.199 104.963 333.027 104.962ZM239.994 97.3939C239.837 97.3943 239.682 97.3574 239.542 97.2862C239.402 97.2151 239.281 97.1117 239.188 96.9845C239.11 96.879 239.054 96.7591 239.022 96.6318C238.991 96.5044 238.984 96.372 239.004 96.2421C239.023 96.1123 239.068 95.9876 239.135 95.8751C239.203 95.7627 239.292 95.6647 239.397 95.5867C240.213 94.9877 241.029 94.4086 241.845 93.8295C241.952 93.7541 242.073 93.7007 242.201 93.6721C242.328 93.6436 242.461 93.6407 242.589 93.6634C242.718 93.6861 242.841 93.734 242.952 93.8045C243.062 93.875 243.158 93.9666 243.233 94.0741C243.308 94.1816 243.361 94.303 243.39 94.4311C243.418 94.5593 243.421 94.6919 243.399 94.8212C243.376 94.9505 243.328 95.0741 243.258 95.1849C243.188 95.2957 243.096 95.3915 242.989 95.4669L240.581 97.1942C240.401 97.3301 240.18 97.4005 239.954 97.3939H239.994ZM325.465 94.4985C325.333 94.4979 325.203 94.4712 325.082 94.4197C324.96 94.3683 324.85 94.2933 324.758 94.1989C324.095 93.5333 323.388 92.8677 322.639 92.2021C322.441 92.0272 322.321 91.7807 322.304 91.5168C322.287 91.2529 322.375 90.993 322.549 90.7943C322.724 90.596 322.969 90.4751 323.232 90.4582C323.495 90.4414 323.754 90.53 323.952 90.7045C324.708 91.3734 325.455 92.0823 326.171 92.8111C326.356 92.9982 326.461 93.2513 326.461 93.515C326.461 93.7788 326.356 94.0318 326.171 94.2189C326.073 94.3146 325.956 94.3888 325.827 94.4369C325.699 94.485 325.562 94.506 325.425 94.4985H325.465ZM250.84 90.2652C250.664 90.2659 250.492 90.2201 250.34 90.1324C250.188 90.0448 250.062 89.9183 249.974 89.766C249.844 89.5379 249.808 89.2674 249.875 89.0132C249.942 88.7589 250.106 88.5415 250.332 88.4081C251.208 87.8989 252.083 87.4097 252.959 86.9305C253.073 86.8649 253.199 86.8226 253.33 86.8059C253.461 86.7893 253.593 86.7986 253.72 86.8334C253.847 86.8681 253.966 86.9277 254.071 87.0086C254.175 87.0895 254.262 87.1902 254.327 87.3049C254.393 87.4196 254.435 87.5461 254.451 87.6772C254.468 87.8083 254.459 87.9413 254.424 88.0688C254.389 88.1963 254.33 88.3157 254.249 88.4202C254.169 88.5246 254.068 88.6121 253.954 88.6777C253.088 89.147 252.233 89.6761 251.377 90.1354C251.185 90.2489 250.961 90.2946 250.74 90.2652H250.84ZM315.196 86.7508C315.028 86.7513 314.863 86.7065 314.719 86.621C313.883 86.1617 313.007 85.7124 312.112 85.2931C311.994 85.2367 311.888 85.1575 311.8 85.06C311.712 84.9625 311.644 84.8486 311.6 84.7248C311.557 84.6011 311.537 84.4698 311.544 84.3386C311.551 84.2074 311.583 84.0788 311.639 83.9602C311.695 83.8415 311.774 83.7351 311.871 83.6471C311.969 83.559 312.082 83.4911 312.205 83.447C312.329 83.403 312.46 83.3837 312.59 83.3904C312.721 83.3971 312.849 83.4296 312.968 83.4859C313.893 83.9252 314.798 84.3945 315.674 84.8737C315.869 84.9795 316.024 85.1477 316.113 85.3517C316.202 85.5556 316.22 85.7836 316.165 85.9993C316.111 86.2151 315.985 86.4062 315.81 86.5424C315.634 86.6785 315.418 86.7519 315.196 86.7508ZM262.412 84.5343C262.18 84.5348 261.955 84.4542 261.776 84.3062C261.597 84.1583 261.476 83.9523 261.432 83.7238C261.388 83.4954 261.425 83.2588 261.537 83.055C261.649 82.8512 261.828 82.6928 262.043 82.6073C262.979 82.2279 263.914 81.8685 264.859 81.529C265.105 81.4476 265.373 81.4656 265.606 81.5792C265.839 81.6928 266.019 81.8932 266.107 82.1376C266.195 82.382 266.185 82.6512 266.078 82.8881C265.971 83.125 265.777 83.3108 265.536 83.4061C264.62 83.7355 263.705 84.085 262.79 84.4644C262.645 84.5235 262.488 84.5474 262.332 84.5343H262.412ZM303.256 81.8386C303.16 81.8482 303.064 81.8482 302.968 81.8386C302.032 81.559 301.077 81.2994 300.132 81.0798C299.868 81.0175 299.64 80.8527 299.497 80.6214C299.354 80.3902 299.309 80.1115 299.371 79.8467C299.433 79.5819 299.597 79.3527 299.828 79.2095C300.058 79.0662 300.336 79.0207 300.6 79.0829C301.595 79.3225 302.59 79.5821 303.585 79.8717C303.849 79.9088 304.087 80.0495 304.247 80.2629C304.408 80.4764 304.477 80.7451 304.44 81.0099C304.403 81.2747 304.263 81.5139 304.05 81.6749C303.838 81.8359 303.57 81.9056 303.306 81.8685L303.256 81.8386ZM274.62 80.7303C274.389 80.7355 274.163 80.6595 273.981 80.5156C273.8 80.3716 273.674 80.1686 273.625 79.9416C273.598 79.8124 273.596 79.6789 273.62 79.549C273.644 79.4191 273.694 79.2953 273.766 79.1848C273.838 79.0743 273.931 78.9793 274.041 78.9052C274.15 78.8312 274.272 78.7796 274.401 78.7535C275.396 78.5538 276.391 78.3641 277.386 78.2143C277.65 78.1733 277.92 78.2391 278.135 78.3973C278.351 78.5555 278.495 78.7932 278.536 79.058C278.576 79.3228 278.511 79.593 278.353 79.8093C278.195 80.0255 277.959 80.1701 277.695 80.2111C276.7 80.3609 275.774 80.5406 274.809 80.7403C274.746 80.7459 274.682 80.7425 274.62 80.7303ZM290.471 79.6121H290.401C289.406 79.5522 288.411 79.5122 287.476 79.5023C287.212 79.5023 286.959 79.3971 286.772 79.2098C286.585 79.0226 286.481 78.7686 286.481 78.5038C286.481 78.2391 286.585 77.9851 286.772 77.7979C286.959 77.6106 287.212 77.5054 287.476 77.5054C288.471 77.5054 289.466 77.5554 290.51 77.6153C290.774 77.6232 291.024 77.736 291.205 77.9289C291.386 78.1217 291.483 78.3788 291.476 78.6436C291.468 78.9084 291.355 79.1592 291.163 79.3408C290.971 79.5225 290.715 79.62 290.451 79.6121H290.471Z" fill="#DCDFEA"/>
<path d="M270.282 236.892H155.966L178.543 52.3654H280.491L291.137 66.473L270.282 236.892Z" fill="#B9C0D4"/>
<path d="M257.914 236.892H143.588L166.165 52.3654H280.49L257.914 236.892Z" fill="#DCDFEA"/>
<path d="M252.282 201.878H156.762L173.05 68.8192H268.57L252.282 201.878Z" fill="white"/>
<path d="M220.064 143.79L247.665 144.12L247.128 148.403L220.064 147.934V143.79Z" fill="#DCDFEA"/>
<path d="M143.588 236.892L157.339 249.632L268.57 251.33L270.282 236.892H143.588Z" fill="#B9C0D4"/>
<path d="M231.835 104.822C231.835 104.822 236.601 105.162 239.039 114.157C241.477 123.153 240.641 148.263 240.641 148.263L220.084 147.934C220.084 147.934 209.826 110.563 231.835 104.822Z" fill="#16A34A"/>
<path d="M133.051 50.8941L58.2788 111.846L97.5219 160.318L172.294 99.3657L133.051 50.8941Z" fill="#4ADE80"/>
<path d="M132.646 64.3052L99.1675 91.5958L105.648 99.6008L139.127 72.3102L132.646 64.3052Z" fill="white"/>
<path opacity="0.46" d="M105.99 125.823L94.0199 135.581C92.3906 136.909 92.1428 139.311 93.4664 140.946L95.1541 143.03C96.4777 144.665 98.8715 144.914 100.501 143.586L112.471 133.828C114.1 132.5 114.348 130.098 113.025 128.463L111.337 126.378C110.013 124.743 107.619 124.495 105.99 125.823Z" fill="white"/>
<path opacity="0.46" d="M149.731 90.1733L116.361 117.376C114.731 118.704 114.484 121.106 115.807 122.741L117.495 124.825C118.819 126.46 121.212 126.709 122.842 125.381L156.212 98.1783C157.841 96.8501 158.089 94.4481 156.765 92.8132L155.077 90.7286C153.754 89.0938 151.36 88.8451 149.731 90.1733Z" fill="white"/>
<path opacity="0.3" d="M81.4708 120.148C85.2296 120.148 88.2766 117.09 88.2766 113.318C88.2766 109.547 85.2296 106.489 81.4708 106.489C77.7121 106.489 74.665 109.547 74.665 113.318C74.665 117.09 77.7121 120.148 81.4708 120.148Z" fill="white"/>
<path opacity="0.3" d="M88.3761 113.928C92.1348 113.928 95.1819 110.87 95.1819 107.099C95.1819 103.327 92.1348 100.269 88.3761 100.269C84.6174 100.269 81.5703 103.327 81.5703 107.099C81.5703 110.87 84.6174 113.928 88.3761 113.928Z" fill="white"/>
<path d="M231.835 104.822C231.835 104.822 221.019 108.726 224.79 139.307C227.556 161.712 218.213 191.375 204.403 191.734C190.592 192.094 165.12 190.876 165.12 190.876C165.12 190.876 178.383 156.43 175.637 127.506C175.215 123.457 175.698 119.364 177.05 115.525C178.662 111.122 181.657 106.539 187.229 105.791C198.353 104.273 231.835 104.822 231.835 104.822Z" fill="#4ADE80"/>
<path d="M157.469 193.112L206.273 192.114C206.273 192.114 198.831 184.705 198.363 165.845L131.23 166.844C132.381 171.71 134.15 176.408 136.494 180.821C138.522 184.611 141.554 187.764 145.255 189.933C148.956 192.102 153.183 193.202 157.469 193.112Z" fill="#4ADE80"/>
<path opacity="0.44" d="M157.469 193.112L206.273 192.114C206.273 192.114 198.831 184.705 198.363 165.845L131.23 166.844C132.381 171.71 134.15 176.408 136.494 180.821C138.522 184.611 141.554 187.764 145.255 189.933C148.956 192.102 153.183 193.202 157.469 193.112Z" fill="white"/>
<path d="M193.139 78.424L191.438 89.6362H240.76L242.253 78.424H193.139Z" fill="#16A34A"/>
<path opacity="0.48" d="M206.721 210.854C201.398 206.181 192.98 207.1 189.219 213.12C188.27 214.583 187.756 216.287 187.737 218.032C187.737 225.421 192.821 230.263 202.98 228.226C210.731 226.669 213.686 216.954 206.721 210.854Z" fill="white"/>
<path d="M319.694 237.222C334.849 237.222 347.136 224.893 347.136 209.686C347.136 194.478 334.849 182.149 319.694 182.149C304.538 182.149 292.251 194.478 292.251 209.686C292.251 224.893 304.538 237.222 319.694 237.222Z" fill="#4ADE80"/>
<path opacity="0.09" d="M319.694 237.222C334.849 237.222 347.136 224.893 347.136 209.686C347.136 194.478 334.849 182.149 319.694 182.149C304.538 182.149 292.251 194.478 292.251 209.686C292.251 224.893 304.538 237.222 319.694 237.222Z" fill="#111322"/>
<path d="M320.937 229.764C336.093 229.764 348.379 217.435 348.379 202.227C348.379 187.02 336.093 174.691 320.937 174.691C305.781 174.691 293.495 187.02 293.495 202.227C293.495 217.435 305.781 229.764 320.937 229.764Z" fill="#4ADE80"/>
<path d="M324.868 185.664C325.783 185.814 326.012 186.183 325.863 187.101L325.534 189.098C329.116 190.227 330.917 192.423 331.932 195.888C332.251 196.886 331.932 197.415 330.808 197.715L328.708 198.264C327.713 198.553 327.315 198.264 326.957 197.265C326.714 196.203 326.137 195.247 325.311 194.538C324.485 193.83 323.454 193.407 322.37 193.332C318.987 192.762 317.266 193.501 316.878 195.778C316.639 197.255 317.873 198.404 319.186 198.923C320.098 199.287 321.032 199.594 321.982 199.841C323.774 200.236 325.5 200.888 327.106 201.778C327.914 202.188 328.639 202.743 329.246 203.416C329.831 204.284 330.237 205.262 330.439 206.291C330.64 207.32 330.634 208.38 330.42 209.406C329.693 213.759 326.29 216.235 321.027 216.125L320.679 218.212C320.519 219.131 320.191 219.4 319.276 219.211L317.077 218.841C316.161 218.681 315.903 218.312 316.082 217.393L316.42 215.397C312.52 214.198 310.191 211.712 309.455 207.888C309.286 206.96 309.704 206.411 310.689 206.211L312.758 205.812C313.813 205.622 314.211 205.942 314.48 207.01C314.987 209.396 316.589 210.824 319.306 211.273C322.967 211.892 324.997 211.043 325.395 208.677C325.514 208.136 325.451 207.571 325.215 207.071C324.979 206.57 324.584 206.162 324.092 205.912C322.893 205.253 321.606 204.772 320.271 204.484C318.458 204.077 316.721 203.383 315.127 202.427C314.334 201.989 313.626 201.41 313.037 200.72C312.441 199.892 312.023 198.949 311.808 197.95C311.594 196.952 311.589 195.92 311.793 194.919C312.51 190.606 315.704 188.18 320.917 188.359L321.246 186.363C321.395 185.444 321.773 185.185 322.689 185.364L324.868 185.664Z" fill="white"/>
<path d="M184.841 117.242C184.71 117.247 184.58 117.226 184.458 117.18C184.335 117.134 184.223 117.064 184.127 116.975C184.032 116.885 183.954 116.778 183.9 116.658C183.846 116.539 183.816 116.41 183.811 116.279C183.807 116.148 183.828 116.017 183.874 115.894C183.919 115.771 183.989 115.659 184.078 115.563C184.167 115.467 184.274 115.389 184.393 115.335C184.512 115.28 184.641 115.25 184.771 115.245C184.98 115.245 205.786 113.708 216.94 114.706C217.204 114.73 217.447 114.858 217.617 115.062C217.787 115.266 217.869 115.53 217.845 115.795C217.821 116.059 217.694 116.304 217.49 116.474C217.287 116.645 217.024 116.727 216.761 116.703C205.816 115.705 185.12 117.212 184.921 117.232L184.841 117.242Z" fill="white"/>
<path d="M183.19 130.751C183.059 130.756 182.929 130.734 182.806 130.688C182.684 130.642 182.571 130.573 182.476 130.483C182.283 130.303 182.169 130.052 182.16 129.788C182.151 129.523 182.247 129.265 182.427 129.071C182.607 128.878 182.856 128.763 183.12 128.754C183.329 128.754 204.134 127.217 215.288 128.215C215.552 128.239 215.796 128.367 215.966 128.571C216.135 128.775 216.218 129.039 216.194 129.303C216.17 129.568 216.042 129.813 215.839 129.983C215.636 130.153 215.373 130.236 215.109 130.212C204.164 129.213 183.478 130.731 183.269 130.741L183.19 130.751Z" fill="white"/>
<path d="M183 144.789C182.737 144.799 182.479 144.704 182.285 144.524C182.091 144.345 181.976 144.095 181.966 143.83C181.955 143.565 182.05 143.307 182.229 143.112C182.408 142.918 182.657 142.802 182.921 142.792C183.13 142.792 203.945 141.254 215.089 142.253C215.22 142.264 215.347 142.302 215.463 142.363C215.579 142.424 215.682 142.508 215.767 142.609C215.851 142.71 215.914 142.826 215.953 142.952C215.992 143.078 216.006 143.21 215.995 143.341C215.983 143.472 215.945 143.6 215.885 143.716C215.824 143.833 215.741 143.936 215.64 144.021C215.539 144.105 215.423 144.169 215.298 144.208C215.172 144.247 215.041 144.261 214.91 144.25C203.965 143.251 183.279 144.769 183.07 144.779L183 144.789Z" fill="white"/>
<path d="M181.677 158.826C181.546 158.831 181.416 158.81 181.294 158.764C181.171 158.718 181.059 158.648 180.963 158.559C180.868 158.469 180.79 158.362 180.736 158.242C180.682 158.123 180.652 157.994 180.647 157.863C180.643 157.732 180.664 157.601 180.71 157.478C180.755 157.355 180.825 157.243 180.914 157.147C181.003 157.051 181.11 156.973 181.229 156.919C181.348 156.864 181.477 156.834 181.607 156.83C181.816 156.83 202.622 155.292 213.776 156.3C213.906 156.312 214.033 156.35 214.15 156.411C214.266 156.472 214.369 156.555 214.453 156.656C214.537 156.757 214.6 156.874 214.64 157C214.679 157.125 214.693 157.258 214.681 157.389C214.669 157.52 214.632 157.647 214.571 157.764C214.51 157.88 214.427 157.984 214.326 158.068C214.226 158.153 214.109 158.216 213.984 158.256C213.859 158.295 213.727 158.309 213.597 158.297C202.652 157.299 181.965 158.816 181.757 158.826H181.677Z" fill="white"/>
<path d="M53.9162 246.898L56.5639 254.078L63.7192 256.735L56.5639 259.392L53.9162 266.572L51.2686 259.392L44.1133 256.735L51.2686 254.078L53.9162 246.898Z" fill="#DCDFEA"/>
<path d="M357.808 81.6434L360.456 88.8232L367.611 91.48L360.456 94.1368L357.808 101.317L355.16 94.1368L348.005 91.48L355.16 88.8232L357.808 81.6434Z" fill="#DCDFEA"/>
<path d="M37.7415 219.356L39.4625 224.023L44.1135 225.75L39.4625 227.476L37.7415 232.143L36.0206 227.476L31.3696 225.75L36.0206 224.023L37.7415 219.356Z" fill="#DCDFEA"/>
<path d="M338.692 33.4439L340.413 38.1108L345.064 39.8377L340.413 41.5646L338.692 46.2315L336.971 41.5646L332.32 39.8377L336.971 38.1108L338.692 33.4439Z" fill="#DCDFEA"/>
<path d="M283.796 29.5093L284.722 32.0223L287.227 32.9521L284.722 33.882L283.796 36.395L282.869 33.882L280.365 32.9521L282.869 32.0223L283.796 29.5093Z" fill="#DCDFEA"/>
</svg>
