<svg width="24" height="24" viewBox="0 0 24 24" fill="none" xmlns="http://www.w3.org/2000/svg">
<path fill-rule="evenodd" clip-rule="evenodd" d="M0 11.9998C0 5.3724 5.37258 -0.000183105 12 -0.000183105C18.6274 -0.000183105 24 5.3724 24 11.9998C24 18.6272 18.6274 23.9998 12 23.9998C5.37258 23.9998 0 18.6272 0 11.9998Z" fill="white"/>
<path fill-rule="evenodd" clip-rule="evenodd" d="M12 -0.000183105C5.37258 -0.000183105 0 5.3724 0 11.9998C0 18.6272 5.37258 23.9998 12 23.9998C18.6274 23.9998 24 18.6272 24 11.9998C24 5.3724 18.6274 -0.000183105 12 -0.000183105ZM9.90125 11.8555C9.90125 10.7803 10.7787 9.90289 11.8539 9.90289C12.9291 9.90289 13.8065 10.7803 13.8065 11.8555C13.8065 12.9307 12.9291 13.8082 11.8539 13.8082C10.7787 13.8082 9.90125 12.9307 9.90125 11.8555ZM17.7105 11.5598C17.7104 11.6583 17.7103 11.7568 17.7103 11.8555C17.7103 11.9659 17.7105 12.0761 17.7107 12.1863C17.7117 12.883 17.7127 13.5756 17.6722 14.2725C17.6268 15.21 17.4144 16.0406 16.7274 16.7276C16.0419 17.4131 15.2098 17.627 14.2723 17.6724C13.5637 17.7123 12.8596 17.7115 12.1511 17.7107C12.0526 17.7106 11.954 17.7105 11.8553 17.7105C11.7569 17.7105 11.6584 17.7106 11.5601 17.7107C10.8526 17.7115 10.1483 17.7123 9.43835 17.6724C8.50085 17.627 7.67029 17.4146 6.98328 16.7276C6.29773 16.0421 6.08386 15.21 6.03845 14.2725C5.99858 13.5639 5.99936 12.8586 6.00015 12.1508C6.00026 12.0524 6.00037 11.954 6.00037 11.8555C6.00037 11.757 6.00026 11.6586 6.00015 11.5603C5.99936 10.8527 5.99858 10.1485 6.03845 9.43854C6.08386 8.50104 6.29626 7.67047 6.98328 6.98346C7.66882 6.29791 8.50085 6.08405 9.43835 6.03864C10.147 5.99877 10.8511 5.99955 11.5596 6.00033C11.6581 6.00044 11.7567 6.00055 11.8553 6.00055C11.9538 6.00055 12.0522 6.00044 12.1506 6.00033C12.8581 5.99955 13.5624 5.99877 14.2723 6.03864C15.2098 6.08405 16.0404 6.29645 16.7274 6.98346C17.413 7.66901 17.6268 8.50104 17.6722 9.43854C17.7121 10.1472 17.7113 10.8512 17.7105 11.5598ZM8.84949 11.8555C8.84949 13.5181 10.1913 14.8599 11.8539 14.8599C13.5165 14.8599 14.8583 13.5181 14.8583 11.8555C14.8583 10.1929 13.5165 8.85114 11.8539 8.85114C10.1913 8.85114 8.84949 10.1929 8.84949 11.8555ZM14.2797 8.72809C14.2797 9.11627 14.5931 9.42975 14.9813 9.42975C15.0735 9.42986 15.1648 9.41179 15.25 9.37657C15.3352 9.34135 15.4126 9.28967 15.4777 9.22449C15.5429 9.15932 15.5946 9.08192 15.6298 8.99674C15.665 8.91156 15.6831 8.82026 15.683 8.72809C15.683 8.3399 15.3695 8.02643 14.9813 8.02643C14.5931 8.02643 14.2797 8.3399 14.2797 8.72809Z" fill="#0C66FF"/>
</svg>
