<svg width="20" height="20" viewBox="0 0 20 20" fill="none" xmlns="http://www.w3.org/2000/svg">
<path fill-rule="evenodd" clip-rule="evenodd" d="M10.0002 0.832855C4.93766 0.832855 0.833496 4.93702 0.833496 9.99952C0.833496 15.062 4.93766 19.1662 10.0002 19.1662C15.0627 19.1662 19.1668 15.062 19.1668 9.99952C19.1668 4.93702 15.0627 0.832855 10.0002 0.832855ZM13.9735 8.44952C14.0467 8.36589 14.1024 8.26847 14.1373 8.16299C14.1723 8.05752 14.1858 7.94612 14.1771 7.83534C14.1683 7.72457 14.1375 7.61666 14.0865 7.51796C14.0354 7.41926 13.9651 7.33178 13.8798 7.26064C13.7944 7.1895 13.6957 7.13616 13.5894 7.10374C13.4831 7.07132 13.3714 7.06049 13.2609 7.07188C13.1504 7.08327 13.0432 7.11664 12.9458 7.17005C12.8483 7.22345 12.7626 7.29581 12.6935 7.38285L9.11016 11.682L7.256 9.82702C7.09883 9.67522 6.88833 9.59123 6.66983 9.59313C6.45133 9.59503 6.24232 9.68267 6.08781 9.83717C5.93331 9.99168 5.84567 10.2007 5.84377 10.4192C5.84187 10.6377 5.92586 10.8482 6.07766 11.0054L8.57766 13.5054C8.65954 13.5872 8.75757 13.6511 8.86551 13.6929C8.97344 13.7347 9.08891 13.7536 9.20455 13.7484C9.3202 13.7431 9.43348 13.7139 9.53717 13.6624C9.64087 13.6109 9.7327 13.5384 9.80683 13.4495L13.9735 8.44952Z" fill="#15B79E"/>
</svg>
